<svg xmlns="http://www.w3.org/2000/svg" width="43.09" height="36" viewBox="0 0 43.09 36">
  <path id="Icon_map-clothing-store" data-name="Icon map-clothing-store" d="M45.466,14.728a1.23,1.23,0,0,1-.182.911l-5.174,8.492a1.117,1.117,0,0,1-.932.508,2.436,2.436,0,0,1-.469-.053L34.56,23.464V43.581a.973.973,0,0,1-.96,1.059H13.44a.973.973,0,0,1-.96-1.059V23.464L8.755,24.6a.845.845,0,0,1-1.046-.455L2.573,15.671a1.16,1.16,0,0,1-.134-.889,1.01,1.01,0,0,1,.528-.678L13.44,8.64h4.8A.968.968,0,0,1,19.2,9.7c0,2.181,2.774,3.727,4.752,3.727S28.8,11.891,28.8,9.7a.973.973,0,0,1,.96-1.059h4.8L44.928,14a1.123,1.123,0,0,1,.538.731Z" transform="translate(-2.403 -8.64)" fill="#0d0c08"/>
</svg>
